<?xml version="1.0" standalone="no"?>
<!DOCTYPE svg PUBLIC "-//W3C//DTD SVG 20010904//EN"
 "http://www.w3.org/TR/2001/REC-SVG-20010904/DTD/svg10.dtd">
<svg version="1.0" xmlns="http://www.w3.org/2000/svg"
 width="1000.000000pt" height="276.000000pt" viewBox="0 0 1000.000000 276.000000"
 preserveAspectRatio="xMidYMid meet">
<metadata>
Created by potrace 1.16, written by Peter Selinger 2001-2019
</metadata>
<g transform="translate(0.000000,276.000000) scale(0.100000,-0.100000)"
fill="white" stroke="white">
<path d="M627 2749 c-58 -14 -128 -53 -184 -104 l-52 -46 -3 58 -3 58 -193 3
-192 2 2 -602 3 -603 187 -3 188 -2 5 22 c2 13 6 176 8 363 2 326 3 342 25
397 41 101 114 147 218 135 54 -6 71 -19 98 -77 20 -43 21 -64 24 -420 1 -206
5 -385 7 -398 l5 -22 188 2 187 3 6 350 c6 319 8 356 27 415 22 66 59 113 112
140 36 19 133 17 164 -3 69 -45 77 -96 85 -542 l6 -360 179 -3 c123 -2 183 1
192 9 11 9 14 79 14 383 -1 415 -9 546 -40 629 -29 78 -96 149 -178 189 -64
32 -70 33 -192 33 -123 0 -126 -1 -201 -36 -47 -23 -99 -59 -140 -97 l-65 -60
-28 44 c-64 101 -182 155 -335 153 -47 -1 -103 -5 -124 -10z"/>
<path d="M2526 2744 c-186 -45 -326 -192 -383 -404 -25 -92 -25 -348 0 -440
66 -243 232 -400 455 -430 158 -21 316 19 411 105 l41 37 0 -39 c0 -21 5 -44
12 -51 8 -8 66 -12 195 -12 181 0 183 0 188 23 3 12 4 283 3 602 l-3 580 -190
0 -190 0 -3 -58 -3 -59 -43 40 c-95 87 -193 123 -341 121 -49 0 -116 -7 -149
-15z m402 -343 c54 -28 109 -95 127 -155 8 -27 15 -84 15 -126 0 -200 -92
-304 -269 -304 -183 1 -280 116 -269 322 8 147 62 235 170 274 67 23 168 19
226 -11z"/>
<path d="M4347 2745 c-71 -20 -148 -61 -205 -111 l-51 -45 -3 63 -3 63 -185 0
-185 0 0 -600 0 -600 184 -3 c141 -2 186 1 193 10 4 7 8 164 8 349 0 380 4
411 68 481 20 23 55 49 77 59 56 26 163 25 214 0 72 -37 81 -96 81 -531 0
-283 3 -350 14 -359 9 -8 69 -11 192 -9 l179 3 0 475 0 475 -24 60 c-17 41
-42 77 -80 115 -89 89 -177 120 -331 119 -52 0 -117 -7 -143 -14z"/>
<path d="M5247 1624 c-4 -4 -7 -90 -7 -190 l0 -183 -77 -3 -78 -3 -3 -152 -3
-152 25 -7 c14 -3 50 -4 81 -2 l55 3 0 -437 c0 -422 1 -438 19 -448 26 -13
326 -13 352 0 18 10 19 26 19 448 l0 437 68 -3 c51 -3 71 0 80 11 9 10 12 57
10 158 l-3 144 -77 3 -78 3 -2 187 -3 187 -186 3 c-102 1 -188 -1 -192 -4z"/>
<path d="M6047 1624 c-4 -4 -7 -90 -7 -190 l0 -183 -77 -3 -78 -3 -3 -149 c-2
-113 1 -151 10 -158 7 -4 43 -8 81 -8 l67 0 0 -435 c0 -419 1 -435 19 -445 26
-13 326 -13 352 0 18 10 19 26 19 448 l0 437 68 -3 c51 -3 71 0 80 11 9 10 12
57 10 158 l-3 144 -77 3 -78 3 -2 187 -3 187 -186 3 c-102 1 -188 -1 -192 -4z"/>
<path d="M9445 1293 c-260 -41 -412 -177 -423 -380 -11 -192 95 -292 438 -419
147 -54 193 -102 150 -157 -66 -84 -283 -47 -305 53 -13 58 -23 57 -174 -22
-77 -40 -142 -78 -145 -84 -2 -7 5 -30 16 -53 107 -217 509 -302 785 -166 89
44 162 121 193 203 31 82 25 215 -13 288 -51 99 -136 155 -353 234 -171 62
-219 92 -219 139 0 54 39 76 130 76 86 0 116 -16 153 -83 13 -23 29 -42 35
-42 21 0 277 130 277 141 0 18 -40 88 -70 123 -73 82 -215 141 -361 149 -46 3
-97 3 -114 0z"/>
<path d="M2175 1277 c-67 -18 -123 -48 -189 -102 l-55 -44 -3 57 -3 57 -190 0
-190 0 -3 -590 c-2 -546 -1 -591 15 -602 24 -18 333 -18 356 0 14 11 16 52 20
352 4 386 10 426 76 495 62 65 186 80 237 29 47 -48 54 -112 54 -500 0 -312 2
-360 16 -373 13 -13 44 -16 179 -16 90 0 170 3 179 6 14 5 16 39 16 268 1 375
14 495 62 566 42 62 71 75 158 75 120 0 141 -27 160 -205 5 -52 10 -231 10
-396 0 -266 2 -303 16 -308 9 -3 89 -6 179 -6 135 0 166 3 179 16 14 13 16 63
16 392 0 552 -13 626 -119 732 -69 69 -143 100 -256 107 -148 10 -268 -34
-378 -138 -34 -33 -63 -55 -65 -50 -2 5 -16 28 -32 49 -33 46 -95 91 -160 116
-59 23 -217 30 -285 13z"/>
<path d="M4085 1280 c-199 -41 -341 -182 -400 -395 -9 -33 -19 -110 -22 -171
-12 -243 50 -447 176 -573 43 -43 139 -111 157 -111 21 0 49 121 48 210 -1 74
-8 106 -54 245 -46 143 -51 166 -46 218 18 181 145 277 366 277 95 0 168 -17
198 -47 20 -20 23 -31 18 -63 -5 -30 1 -53 24 -105 23 -51 29 -76 24 -101 -5
-27 0 -41 36 -88 44 -59 47 -82 8 -88 -18 -2 -24 -10 -26 -35 -2 -23 -9 -33
-28 -37 -30 -8 -32 -26 -1 -26 21 0 22 -4 22 -76 0 -92 -8 -99 -99 -89 -78 8
-90 -3 -88 -81 2 -68 13 -90 53 -98 62 -12 454 -7 472 7 16 11 17 56 15 602
l-3 590 -180 0 -180 0 -3 -60 -3 -60 -48 45 c-107 100 -276 142 -436 110z"/>
<path d="M7155 1274 c-137 -29 -266 -107 -344 -207 -160 -208 -187 -507 -69
-753 44 -94 149 -200 240 -243 262 -124 593 -82 775 99 68 67 124 145 117 164
-2 6 -72 45 -154 86 l-150 74 -17 -24 c-25 -36 -72 -79 -107 -97 -42 -22 -174
-29 -233 -12 -59 16 -115 71 -136 132 l-16 47 427 2 427 3 9 50 c21 113 -28
329 -99 440 -72 113 -218 210 -360 240 -88 18 -219 18 -310 -1z m241 -329 c56
-16 96 -52 118 -107 9 -21 16 -39 16 -40 0 -2 -101 -2 -225 0 -143 2 -225 6
-225 13 0 19 28 64 58 92 57 55 160 72 258 42z"/>
<path d="M8747 1279 c-85 -20 -170 -81 -219 -158 l-28 -45 0 87 0 87 -187 -2
-188 -3 -3 -590 c-2 -546 -1 -591 15 -602 24 -18 333 -18 356 0 14 11 16 50
20 337 4 362 7 380 68 441 58 58 174 75 294 44 32 -9 62 -12 67 -7 15 15 62
382 50 394 -25 25 -169 35 -245 17z"/>
</g>
</svg>
